#N canvas 157 22 980 745 10;
#X obj 34 57 s oscdata;
#X obj 589 226 r oscdata;
#X floatatom 550 305 5 0 0 0 - - -;
#X floatatom 592 304 5 0 0 0 - - -;
#X floatatom 632 303 5 0 0 0 - - -;
#X obj 19 27 dumpOSC 3333;
#X obj 20 93 route /skeletons/ID-centralXYZ;
#X floatatom 22 154 5 0 0 0 - - -;
#X floatatom 55 176 5 0 0 0 - - -;
#X floatatom 90 195 5 0 0 0 - - -;
#X floatatom 130 209 5 0 0 0 - - -;
#X obj 590 249 route /skeletons/bones/leftArm;
#X obj 590 271 unpack f f f f f f f f;
#X obj 21 126 unpack f f f f;
#X floatatom 672 304 5 0 0 0 - - -;
#X floatatom 713 304 5 0 0 0 - - -;
#X floatatom 749 304 5 0 0 0 - - -;
#X floatatom 788 304 5 0 0 0 - - -;
#X floatatom 828 303 5 0 0 0 - - -;
#X obj 561 424 r oscdata;
#X floatatom 562 497 5 0 0 0 - - -;
#X floatatom 579 517 5 0 0 0 - - -;
#X floatatom 598 539 5 0 0 0 - - -;
#X obj 562 469 unpack f f f f f f f f;
#X floatatom 616 562 5 0 0 0 - - -;
#X floatatom 635 587 5 0 0 0 - - -;
#X floatatom 655 615 5 0 0 0 - - -;
#X floatatom 673 648 5 0 0 0 - - -;
#X floatatom 692 675 5 0 0 0 - - -;
#X obj 562 447 route /skeletons/bones/leftLeg;
#X obj 282 401 r oscdata;
#X floatatom 284 660 5 0 0 0 - - -;
#X floatatom 300 636 5 0 0 0 - - -;
#X floatatom 319 611 5 0 0 0 - - -;
#X obj 283 446 unpack f f f f f f f f;
#X floatatom 339 585 5 0 0 0 - - -;
#X floatatom 356 558 5 0 0 0 - - -;
#X floatatom 376 527 5 0 0 0 - - -;
#X floatatom 393 501 5 0 0 0 - - -;
#X floatatom 412 477 5 0 0 0 - - -;
#X obj 283 424 route /skeletons/bones/rightLeg;
#X obj 206 222 r oscdata;
#X floatatom 167 301 5 0 0 0 - - -;
#X floatatom 209 300 5 0 0 0 - - -;
#X floatatom 250 300 5 0 0 0 - - -;
#X obj 207 267 unpack f f f f f f f f;
#X floatatom 289 300 5 0 0 0 - - -;
#X floatatom 330 300 5 0 0 0 - - -;
#X floatatom 366 300 5 0 0 0 - - -;
#X floatatom 405 300 5 0 0 0 - - -;
#X floatatom 445 299 5 0 0 0 - - -;
#X obj 207 245 route /skeletons/bones/rightArm;
#X obj 492 29 r oscdata;
#X floatatom 453 108 5 0 0 0 - - -;
#X floatatom 495 107 5 0 0 0 - - -;
#X floatatom 447 140 5 0 0 0 - - -;
#X floatatom 496 139 5 0 0 0 - - -;
#X floatatom 573 162 5 0 0 0 - - -;
#X floatatom 614 161 5 0 0 0 - - -;
#X floatatom 571 189 5 0 0 0 - - -;
#X floatatom 614 188 5 0 0 0 - - -;
#X obj 493 52 route /skeletons/bones/neckShoulder;
#X obj 493 74 unpack f f f f f f f f f f f f;
#X floatatom 358 166 5 0 0 0 - - -;
#X floatatom 399 165 5 0 0 0 - - -;
#X floatatom 356 193 5 0 0 0 - - -;
#X floatatom 399 192 5 0 0 0 - - -;
#X connect 1 0 11 0;
#X connect 5 0 0 0;
#X connect 5 0 6 0;
#X connect 6 0 13 0;
#X connect 11 0 12 0;
#X connect 12 0 2 0;
#X connect 12 1 3 0;
#X connect 12 2 4 0;
#X connect 12 3 14 0;
#X connect 12 4 15 0;
#X connect 12 5 16 0;
#X connect 12 6 17 0;
#X connect 12 7 18 0;
#X connect 13 0 7 0;
#X connect 13 1 8 0;
#X connect 13 2 9 0;
#X connect 13 3 10 0;
#X connect 19 0 29 0;
#X connect 23 0 20 0;
#X connect 23 1 21 0;
#X connect 23 2 22 0;
#X connect 23 3 24 0;
#X connect 23 4 25 0;
#X connect 23 5 26 0;
#X connect 23 6 27 0;
#X connect 23 7 28 0;
#X connect 29 0 23 0;
#X connect 30 0 40 0;
#X connect 34 0 31 0;
#X connect 34 1 32 0;
#X connect 34 2 33 0;
#X connect 34 3 35 0;
#X connect 34 4 36 0;
#X connect 34 5 37 0;
#X connect 34 6 38 0;
#X connect 34 7 39 0;
#X connect 40 0 34 0;
#X connect 41 0 51 0;
#X connect 45 0 42 0;
#X connect 45 1 43 0;
#X connect 45 2 44 0;
#X connect 45 3 46 0;
#X connect 45 4 47 0;
#X connect 45 5 48 0;
#X connect 45 6 49 0;
#X connect 45 7 50 0;
#X connect 51 0 45 0;
#X connect 52 0 61 0;
#X connect 61 0 62 0;
#X connect 62 0 53 0;
#X connect 62 1 54 0;
#X connect 62 2 55 0;
#X connect 62 3 56 0;
#X connect 62 4 57 0;
#X connect 62 5 58 0;
#X connect 62 6 59 0;
#X connect 62 7 60 0;
#X connect 62 8 63 0;
#X connect 62 9 64 0;
#X connect 62 10 65 0;
#X connect 62 11 66 0;
