#N canvas 27 52 877 701 10;
#X obj 19 27 dumpOSC 8338;
#X obj 20 93 route /found;
#X floatatom 20 128 5 0 0 0 - - -;
#X obj 34 57 s oscdata;
#X obj 19 239 route /pose/orientation;
#X obj 19 261 unpack f f f;
#X obj 18 216 r oscdata;
#X floatatom 20 289 5 0 0 0 - - -;
#X floatatom 53 311 5 0 0 0 - - -;
#X floatatom 88 330 5 0 0 0 - - -;
#X obj 227 34 cnv 15 200 200 empty empty LEFT_EYE 20 12 0 14 -203904
-66577 0;
#X obj 398 249 cnv 15 200 100 empty empty NOSE 20 12 0 14 -175625 -66577
0;
#X obj 287 362 cnv 15 400 200 empty empty MOUTH 20 12 0 14 -258113
-262144 0;
#X obj 246 159 route /gesture/eye/left;
#X obj 246 88 route /gesture/eyebrow/left;
#X floatatom 246 182 5 0 0 0 - - -;
#X floatatom 246 112 5 0 0 0 - - -;
#X obj 439 506 route /gesture/jaw;
#X obj 324 418 route /gesture/mouth/height;
#X obj 510 417 route /gesture/mouth/width;
#X obj 442 296 route /gesture/nostrils;
#X floatatom 439 529 5 0 0 0 - - -;
#X floatatom 324 441 5 0 0 0 - - -;
#X floatatom 510 441 5 0 0 0 - - -;
#X floatatom 442 318 5 0 0 0 - - -;
#X obj 247 65 r oscdata;
#X obj 246 137 r oscdata;
#X obj 442 274 r oscdata;
#X obj 324 395 r oscdata;
#X obj 510 395 r oscdata;
#X obj 439 480 r oscdata;
#X obj 572 35 cnv 15 200 200 empty empty RIGHT_EYE 20 12 0 14 -203904
-66577 0;
#X obj 596 158 route /gesture/eye/right;
#X floatatom 596 180 5 0 0 0 - - -;
#X floatatom 596 108 5 0 0 0 - - -;
#X obj 596 84 route /gesture/eyebrow/right;
#X obj 596 62 r oscdata;
#X obj 596 136 r oscdata;
#X obj 16 364 r oscdata;
#X floatatom 18 437 5 0 0 0 - - -;
#X floatatom 73 455 5 0 0 0 - - -;
#X obj 17 387 route /pose/position;
#X obj 19 523 r oscdata;
#X obj 20 546 route /pose/scale;
#X floatatom 20 569 5 0 0 0 - - -;
#X obj 17 409 unpack f f;
#X connect 0 0 1 0;
#X connect 0 0 3 0;
#X connect 1 0 2 0;
#X connect 4 0 5 0;
#X connect 5 0 7 0;
#X connect 5 1 8 0;
#X connect 5 2 9 0;
#X connect 6 0 4 0;
#X connect 13 0 15 0;
#X connect 14 0 16 0;
#X connect 17 0 21 0;
#X connect 18 0 22 0;
#X connect 19 0 23 0;
#X connect 20 0 24 0;
#X connect 25 0 14 0;
#X connect 26 0 13 0;
#X connect 27 0 20 0;
#X connect 28 0 18 0;
#X connect 29 0 19 0;
#X connect 30 0 17 0;
#X connect 32 0 33 0;
#X connect 35 0 34 0;
#X connect 36 0 35 0;
#X connect 37 0 32 0;
#X connect 38 0 41 0;
#X connect 41 0 45 0;
#X connect 42 0 43 0;
#X connect 43 0 44 0;
#X connect 45 0 39 0;
#X connect 45 1 40 0;
